<svg width="52" height="52" viewBox="0 0 52 52" fill="none" xmlns="http://www.w3.org/2000/svg">
<path d="M30.6656 10.3423C30.6656 11.2089 30.4104 12.0804 29.876 12.8412L7.93966 44.1712C6.55781 46.1452 3.83744 46.6267 1.86336 45.2449C-0.110713 43.863 -0.592194 41.1426 0.789658 39.1686L22.726 7.83376C24.1078 5.85969 26.8282 5.3782 28.8023 6.76006C30.0156 7.61228 30.6656 8.96524 30.6656 10.3423Z" fill="#1E1E1E"/>
<path d="M41.9419 24.6663C41.9419 25.5282 41.6867 26.4045 41.1522 27.1652L29.2452 44.1711C27.8633 46.1452 25.143 46.6267 23.1689 45.2448C21.1948 43.863 20.7133 41.1426 22.0952 39.1685L34.0022 22.1626C35.3841 20.1885 38.1045 19.7071 40.0785 21.0889C41.2919 21.9363 41.9419 23.2893 41.9419 24.6663Z" fill="#1E1E1E"/>
<path d="M4.99778 14.6998C7.40697 14.6998 9.36 12.7468 9.36 10.3376C9.36 7.92838 7.40697 5.97534 4.99778 5.97534C2.58859 5.97534 0.635559 7.92838 0.635559 10.3376C0.635559 12.7468 2.58859 14.6998 4.99778 14.6998Z" fill="#1E1E1E"/>
<path d="M47.6378 14.6998C50.047 14.6998 52 12.7468 52 10.3376C52 7.92838 50.047 5.97534 47.6378 5.97534C45.2286 5.97534 43.2756 7.92838 43.2756 10.3376C43.2756 12.7468 45.2286 14.6998 47.6378 14.6998Z" fill="#1E1E1E"/>
</svg>
