<svg width="57" height="57" viewBox="0 0 57 57" fill="none" xmlns="http://www.w3.org/2000/svg">
<g clip-path="url(#clip0_1_206)">
<path d="M28.5 0C12.7623 0 0 12.7623 0 28.5C0 44.2377 12.7623 57 28.5 57C44.2377 57 57 44.2377 57 28.5C57 12.7623 44.2377 0 28.5 0ZM41.7126 19.38C41.2851 23.8887 39.4269 34.8213 38.4807 39.8715C38.0817 42.009 37.2951 42.7215 36.5313 42.7956C34.8783 42.9495 33.6186 41.7012 32.0169 40.6524C29.5089 39.0108 28.0896 37.9848 25.6557 36.3774C22.8399 34.5249 24.6639 33.5046 26.2713 31.8402C26.6931 31.4013 33.9834 24.7722 34.1259 24.168C34.143 24.0939 34.1601 23.8146 33.9948 23.6664C33.8295 23.5182 33.5844 23.5695 33.4077 23.6094C33.1569 23.6664 29.1498 26.3169 21.3864 31.5552C20.2464 32.3361 19.2204 32.718 18.297 32.6952C17.2767 32.6724 15.3216 32.1195 13.8681 31.6464C12.084 31.065 10.6647 30.7572 10.7901 29.7768C10.8528 29.2638 11.5596 28.7394 12.9105 28.2036C21.2211 24.5841 26.7615 22.1958 29.5317 21.0444C37.449 17.7498 39.0906 17.1798 40.1622 17.1627C40.3959 17.157 40.926 17.2197 41.268 17.4933C41.553 17.727 41.6385 18.0405 41.6727 18.2628C41.7012 18.4851 41.7468 18.9867 41.7126 19.38Z" fill="#1E1E1E"/>
</g>
<defs>
<clipPath id="clip0_1_206">
<rect width="57" height="57" fill="white"/>
</clipPath>
</defs>
</svg>
