<svg width="57" height="57" viewBox="0 0 57 57" fill="none" xmlns="http://www.w3.org/2000/svg">
<g clip-path="url(#clip0_1_213)">
<path d="M52.9986 4.0014C48.9858 0 42.5391 0 29.64 0H27.36C14.4666 0 8.0142 0 4.0014 4.0014C0 8.0142 0 14.4666 0 27.36V29.64C0 42.5391 0 48.9858 4.0014 52.9986C8.0142 57 14.4666 57 27.36 57H29.64C42.5391 57 48.9858 57 52.9986 52.9986C57 48.9858 57 42.5391 57 29.64V27.36C57 14.4666 57 8.0142 52.9986 4.0014ZM40.8975 41.0628C39.4497 36.5541 35.8416 33.06 31.065 32.5869V41.0685H30.3297C17.3394 41.0685 9.9294 32.1594 9.6216 17.3394H16.131C16.3476 28.215 21.1413 32.8263 24.9432 33.7725V17.3394H31.065V26.7216C34.8156 26.3169 38.76 22.0419 40.0881 17.3394H46.2156C45.1953 23.1363 40.9203 27.4113 37.8765 29.1669C40.9146 30.5919 45.7881 34.3197 47.6406 41.0685H40.8975V41.0628Z" fill="#1E1E1E"/>
</g>
<defs>
<clipPath id="clip0_1_213">
<rect width="57" height="57" fill="white"/>
</clipPath>
</defs>
</svg>
